<svg width="833" height="72" viewBox="0 0 833 72" fill="none" xmlns="http://www.w3.org/2000/svg">
<g clip-path="url(#clip0)">
<g clip-path="url(#clip1)">
<path d="M13.6568 5.79688H47.3768C54.634 5.79688 60.5168 11.6797 60.5168 18.9369V52.6569C60.5168 59.9141 54.634 65.7969 47.3768 65.7969H13.6568C6.39966 65.7969 0.516846 59.9141 0.516846 52.6569V18.9369C0.516846 11.6797 6.39966 5.79688 13.6568 5.79688Z" fill="url(#paint0_linear)"/>
<path d="M19.7455 49.3461L19.7511 49.348L17.6996 52.9011C16.9508 54.1981 15.2923 54.6425 13.9953 53.8937C12.6985 53.1448 12.2539 51.4864 13.0027 50.1894L14.514 47.5719L14.659 47.3206C14.918 46.9484 15.5572 46.3058 16.8357 46.4267C16.8357 46.4267 19.8444 46.7532 20.0621 48.317C20.0621 48.317 20.0916 48.8314 19.7455 49.3461ZM48.8415 40.2711H42.4444C42.0087 40.2418 41.8187 40.0862 41.7437 39.9957L41.739 39.9875L34.8912 28.1267L34.8823 28.1326L34.4717 27.5438C33.7986 26.5145 32.7298 29.147 32.7298 29.147C31.4537 32.0804 32.911 35.4153 33.4189 36.4234L42.9303 52.8976C43.6789 54.1944 45.3373 54.639 46.6346 53.8899C47.9314 53.1411 48.376 51.4827 47.6269 50.1856L45.2487 46.0663C45.2026 45.9664 45.1224 45.6955 45.6101 45.6943H48.8415C50.3391 45.6943 51.5532 44.4802 51.5532 42.9826C51.5532 41.4849 50.3391 40.2709 48.8415 40.2709V40.2711ZM36.4163 43.9573C36.4163 43.9573 36.7578 45.6943 35.4366 45.6943H11.7884C10.2908 45.6943 9.0767 44.4802 9.0767 42.9826C9.0767 41.4849 10.2908 40.2709 11.7884 40.2709H17.8681C18.8497 40.2141 19.0822 39.6474 19.0822 39.6474L19.0878 39.6502L27.0237 25.9046L27.0214 25.9041C27.166 25.6386 27.0455 25.3876 27.0247 25.348L24.4037 20.8084C23.6548 19.5116 24.0992 17.8529 25.3962 17.1043C26.6933 16.3555 28.3517 16.7996 29.1005 18.0966L30.316 20.202L31.5294 18.1004C32.2782 16.8036 33.9366 16.359 35.2337 17.108C36.5307 17.8569 36.9751 19.5151 36.2262 20.8121L25.183 39.9395C25.1347 40.0559 25.1199 40.2388 25.4792 40.2709H32.0801L32.0815 40.3353C32.0815 40.3353 35.8967 40.3946 36.4163 43.9573Z" fill="white"/>
</g>
<g clip-path="url(#clip2)">
<path opacity="0.5" d="M164.445 14.086V31.3313L179.409 22.6909V5.44531L164.445 14.086Z" fill="#13A049"/>
<path opacity="0.5" d="M164.445 14.086L149.481 5.44531V22.7267L164.445 31.3674V14.086Z" fill="#A2CC39"/>
<path opacity="0.9" d="M179.409 5.44531L164.445 14.086L149.481 5.44531L134.517 14.086L164.445 31.3674L194.355 14.086L179.409 5.44531Z" fill="url(#paint1_linear)"/>
<path d="M164.445 31.3674L134.517 14.086V31.3674L149.481 40.0081V57.2717L164.445 65.9124L179.409 57.2717V40.0081L194.355 31.3674V14.086L164.445 31.3674Z" fill="url(#paint2_linear)"/>
<path d="M164.445 31.3674V65.9124L179.409 57.2717V40.0081L194.355 31.3674V14.086L164.445 31.3674Z" fill="url(#paint3_linear)"/>
<path opacity="0.05" d="M164.445 48.631V65.9124L179.409 57.2717L164.445 48.631Z" fill="#231F20"/>
<path opacity="0.1" d="M164.445 65.9483V48.6669L149.481 57.3076L164.445 65.9483Z" fill="#231F20"/>
<path opacity="0.05" d="M149.481 22.7267L134.517 31.3674L149.481 40.0081L164.445 31.3674L149.481 22.7267Z" fill="#231F20"/>
<path opacity="0.05" d="M179.409 22.7267L164.445 31.3674L179.409 40.0081L194.355 31.3674L179.409 22.7267Z" fill="#231F20"/>
</g>
<g clip-path="url(#clip3)">
<path d="M286.889 0.724536C286.546 0.726748 286.208 0.814466 285.907 0.979771C284.919 1.52774 284.556 2.79782 285.104 3.78571L287.336 7.81602C281.958 11.143 278.395 16.8261 278.395 23.3124V24.5176C277.362 23.3293 275.844 22.5791 274.148 22.5791C271.04 22.5791 268.517 25.1024 268.517 28.2099V45.5558C268.517 48.6631 271.04 51.1867 274.148 51.1867C275.844 51.1867 277.362 50.4362 278.395 49.2479V51.6777C278.395 54.9535 281.075 57.6338 284.351 57.6338H285.862V65.3502C285.862 68.458 288.386 70.9813 291.494 70.9813C294.601 70.9813 297.124 68.4577 297.124 65.3502V57.6338H299.739V65.3502C299.739 68.458 302.263 70.9813 305.37 70.9813C308.478 70.9813 311.001 68.4577 311.001 65.3502V57.6338H312.513C315.788 57.6338 318.469 54.9535 318.469 51.6777V49.2479C319.501 50.4362 321.02 51.1867 322.716 51.1867C325.823 51.1867 328.347 48.6631 328.347 45.5558V28.2099C328.347 25.1024 325.823 22.5791 322.716 22.5791C321.02 22.5791 319.501 23.3293 318.469 24.5176V23.5163V23.4589C318.469 23.398 318.469 23.3492 318.469 23.3124C318.469 16.8273 314.897 11.1498 309.522 7.82258L311.76 3.78571C312.307 2.79782 311.945 1.52774 310.957 0.979771C310.655 0.814466 310.318 0.726748 309.975 0.724536C309.244 0.717505 308.528 1.10235 308.151 1.78321L305.81 6.01133C303.522 5.16688 301.032 4.70399 298.432 4.70399C295.835 4.70399 293.34 5.16196 291.053 6.00477L288.713 1.78321C288.336 1.10235 287.619 0.717974 286.889 0.724536Z" fill="white"/>
<path d="M274.148 24.0458C271.829 24.0458 269.984 25.891 269.984 28.2099V45.5558C269.984 47.8747 271.829 49.7199 274.148 49.7199C276.467 49.7199 278.312 47.8747 278.312 45.5558V28.2099C278.312 25.891 276.467 24.0458 274.148 24.0458ZM322.716 24.0458C320.397 24.0458 318.552 25.891 318.552 28.2099V45.5558C318.552 47.8747 320.397 49.7199 322.716 49.7199C325.035 49.7199 326.88 47.8747 326.88 45.5558V28.2099C326.88 25.891 325.035 24.0458 322.716 24.0458Z" fill="#A4C639"/>
<path d="M291.494 43.8401C289.175 43.8401 287.329 45.6854 287.329 48.0045V65.3502C287.329 67.6691 289.175 69.5143 291.494 69.5143C293.813 69.5143 295.658 67.6691 295.658 65.3502V48.0045C295.658 45.6854 293.813 43.8401 291.494 43.8401ZM305.37 43.8401C303.051 43.8401 301.206 45.6854 301.206 48.0045V65.3502C301.206 67.6691 303.051 69.5143 305.37 69.5143C307.689 69.5143 309.535 67.6691 309.535 65.3502V48.0045C309.535 45.6854 307.689 43.8401 305.37 43.8401Z" fill="#A4C639"/>
<path d="M286.902 2.19149C286.803 2.19267 286.707 2.21897 286.621 2.26789C286.324 2.43243 286.227 2.77368 286.392 3.07133L289.325 8.37078C283.682 11.3075 279.869 16.8882 279.862 23.2932H317.002C316.994 16.8882 313.182 11.3073 307.538 8.37078L310.472 3.07157C310.637 2.77391 310.539 2.43243 310.242 2.26789C310.157 2.21894 310.06 2.19264 309.962 2.19149C309.751 2.18914 309.551 2.29461 309.439 2.49758L306.467 7.85422C304.036 6.7761 301.309 6.17071 298.432 6.17071C295.554 6.17071 292.828 6.77586 290.397 7.85422L287.425 2.49758C287.374 2.40355 287.298 2.32527 287.206 2.27128C287.114 2.2173 287.009 2.1897 286.902 2.19149H286.902ZM279.862 24.7599V51.6779C279.86 52.2678 279.976 52.8521 280.201 53.3974C280.426 53.9426 280.757 54.438 281.174 54.8552C281.591 55.2723 282.086 55.6029 282.632 55.828C283.177 56.0532 283.761 56.1684 284.351 56.1671H312.512C313.102 56.1684 313.687 56.0532 314.232 55.828C314.777 55.6028 315.273 55.2722 315.69 54.8551C316.107 54.4379 316.438 53.9425 316.663 53.3972C316.888 52.852 317.003 52.2676 317.002 51.6777V24.7602H279.862V24.7599Z" fill="#A4C639"/>
<path d="M289.861 13.396C289.013 13.396 288.311 14.0977 288.311 14.9455C288.311 15.7934 289.013 16.4952 289.861 16.4952C290.709 16.4952 291.411 15.7934 291.411 14.9455C291.411 14.0977 290.709 13.396 289.861 13.396ZM307.003 13.396C306.155 13.396 305.453 14.0977 305.453 14.9455C305.453 15.7934 306.155 16.4952 307.003 16.4952C307.85 16.4952 308.552 15.7934 308.552 14.9455C308.552 14.0977 307.85 13.396 307.003 13.396Z" fill="white"/>
</g>
<g clip-path="url(#clip4)">
<path d="M438.658 5.79688C419.323 5.79688 404.174 30.3969 402.741 51.1743C408.809 61.7048 423.441 65.6631 438.658 65.6631C453.875 65.6631 468.508 61.7048 474.572 51.1741C473.139 30.3969 457.992 5.79688 438.658 5.79688" fill="#B6DEFF"/>
<path d="M469.52 46.225C469.52 46.225 465.249 36.9924 460.909 31.6059C456.565 26.2172 451.26 20.3495 448.124 20.3495C444.989 20.3495 436.227 35.8645 432.207 35.8645C428.186 35.8645 426.096 28.8312 421.153 28.8312C416.207 28.8312 408.351 45.7915 408.351 45.7915L407.818 48.6667C407.818 48.6667 410.548 60.7684 439.104 60.7684C467.661 60.7684 469.943 48.8653 469.943 48.8653L469.52 46.2248" fill="#66CC66"/>
<path d="M432.654 42.4856C428.219 42.4856 425.946 38.1098 424.713 35.4087C423.605 32.9755 423.413 29.1338 420.268 29.0262C420.577 28.9036 420.874 28.8312 421.153 28.8312C426.096 28.8312 428.186 35.8645 432.207 35.8645C436.227 35.8645 444.99 20.3493 448.124 20.3493C448.715 20.3493 449.38 20.5577 450.102 20.9284C449.568 20.858 448.883 20.907 448.356 21.4363C447.343 22.4498 438.145 42.4856 432.654 42.4856Z" fill="#17AD49"/>
</g>
<g clip-path="url(#clip5)">
<path d="M604.42 55.7476C603.968 59.1095 601.705 62.0185 598.538 63.3113C596.986 63.957 595.306 64.1516 593.625 63.957C592.009 63.7634 590.393 63.2462 588.712 62.2775C586.385 60.9833 584.058 58.9803 581.343 56.0066C585.61 50.7706 588.195 45.987 589.165 41.7214C589.617 39.7173 589.682 37.9072 589.488 36.2262C589.23 34.6105 588.648 33.1231 587.743 31.8305C585.739 28.922 582.378 27.241 578.628 27.241C574.879 27.241 571.518 28.9866 569.514 31.8305C568.609 33.1234 568.028 34.6105 567.769 36.2262C567.51 37.9072 567.575 39.7817 568.092 41.7216C569.062 45.9868 571.712 50.8353 575.914 56.0703C573.263 59.0448 570.872 61.0484 568.544 62.3415C566.864 63.3113 565.248 63.8286 563.632 64.0217C561.966 64.2078 560.28 63.9862 558.719 63.376C555.551 62.0832 553.289 59.1732 552.837 55.812C552.643 54.1965 552.772 52.5807 553.419 50.7706C553.612 50.1237 553.936 49.4785 554.259 48.7023C554.711 47.6684 555.229 46.5687 555.745 45.4695L555.81 45.3411C560.27 35.709 565.054 25.8837 570.031 16.3173L570.225 15.9287C570.742 14.96 571.259 13.9262 571.777 12.9561C572.294 11.9216 572.875 10.9517 573.586 10.1108C574.944 8.55922 576.754 7.71898 578.758 7.71898C580.762 7.71898 582.571 8.55922 583.929 10.111C584.64 10.9517 585.222 11.9216 585.739 12.9563C586.256 13.9262 586.773 14.96 587.29 15.9287L587.485 16.3173C592.397 25.9482 597.181 35.7734 601.641 45.4055V45.4695C602.158 46.5041 602.61 47.6684 603.127 48.7023C603.451 49.4785 603.774 50.1235 603.967 50.7706C604.485 52.4511 604.679 54.0678 604.42 55.7476H604.42ZM578.628 52.7091C575.138 48.3141 572.875 44.1767 572.1 40.6871C571.777 39.2 571.712 37.9072 571.906 36.7435C572.035 35.709 572.423 34.8036 572.94 34.0273C574.168 32.2836 576.236 31.1827 578.628 31.1827C581.02 31.1827 583.153 32.218 584.317 34.0273C584.834 34.8036 585.222 35.709 585.351 36.7435C585.545 37.9072 585.48 39.2645 585.157 40.6871C584.381 44.1127 582.119 48.2497 578.628 52.7091ZM607.781 49.3482C607.458 48.5724 607.135 47.7324 606.812 47.0213C606.295 45.8584 605.778 44.7587 605.325 43.7241L605.26 43.6602C600.801 33.9634 596.017 24.1381 590.975 14.4434L590.781 14.0544C590.264 13.0848 589.747 12.0502 589.23 11.0162C588.583 9.85203 587.936 8.62508 586.903 7.4607C584.833 4.87508 581.86 3.45312 578.693 3.45312C575.461 3.45312 572.552 4.87508 570.419 7.33203C569.449 8.49523 568.738 9.72336 568.092 10.8877C567.575 11.9216 567.057 12.9561 566.54 13.9262L566.347 14.3129C561.37 24.009 556.521 33.8349 552.061 43.531L551.996 43.6602C551.544 44.694 551.026 45.7925 550.509 46.9569C550.163 47.723 549.84 48.4991 549.54 49.2842C548.699 51.6753 548.441 53.9382 548.764 56.2648C549.475 61.1131 552.708 65.1861 557.168 66.9955C558.848 67.707 560.593 68.03 562.404 68.03C562.921 68.03 563.567 67.9653 564.084 67.9002C566.217 67.6412 568.415 66.9315 570.548 65.7027C573.198 64.216 575.72 62.0832 578.564 58.9803C581.407 62.0832 583.993 64.2162 586.579 65.7027C588.712 66.9315 590.91 67.6412 593.043 67.9002C593.56 67.9653 594.207 68.03 594.724 68.03C596.534 68.03 598.343 67.707 599.96 66.9955C604.484 65.1861 607.652 61.0487 608.363 56.2648C608.88 54.0019 608.621 51.7407 607.781 49.348L607.781 49.3482Z" fill="#E0565B"/>
</g>
<g clip-path="url(#clip6)">
<path d="M682.63 5.79688V9.89795H711.798V5.79688H682.63ZM715.931 5.79688V9.89795H757.498C757.498 9.89795 753.252 5.79688 747.629 5.79688H715.931ZM765.652 5.79688V9.89795H790.799L789.307 5.79688H765.652ZM808.829 5.79688L807.336 9.89795H832.255V5.79688H808.829ZM682.63 13.7725V17.8736H711.798V13.7725H682.63ZM715.931 13.7783V17.8736H762.321C762.321 17.8736 761.779 14.7173 760.834 13.7783H715.931ZM765.652 13.7783V17.8736H793.556L792.175 13.7783H765.652ZM805.843 13.7783L804.462 17.8736H832.255V13.7783H805.843ZM691.012 21.7481V25.8544H703.644V21.7481H691.012ZM724.313 21.7481V25.8544H736.946V21.7481H724.313ZM749.232 21.7481V25.8544H761.865C761.865 25.8544 762.667 23.6857 762.667 21.7478H749.232V21.7481ZM774.034 21.7481V25.8544H796.43L794.938 21.7478H774.034V21.7481ZM803.092 21.7481L801.593 25.8547H824.101V21.7481H803.092ZM691.012 29.7296V33.83H703.644V29.7296H691.012ZM724.313 29.7296V33.83H756.579C756.579 33.83 759.278 31.7257 760.138 29.729H724.313V29.7296ZM774.034 29.7296V33.83H786.667V31.5471L787.469 33.83H810.608L811.469 31.5471V33.83H824.101V29.7296H800.388L799.129 33.2034L797.865 29.7296H774.034ZM691.012 37.7046V41.8057H703.644V37.7046H691.012ZM724.313 37.7046V41.8057H760.138C759.278 39.8154 756.579 37.7046 756.579 37.7046H724.313ZM774.034 37.7046V41.8057H786.667V37.7046H774.034ZM788.961 37.7046L790.489 41.8057H807.839L809.291 37.7046H788.961ZM811.469 37.7046V41.8057H824.101V37.7046H811.469ZM691.012 45.6802V49.7813H703.644V45.6802H691.012ZM724.313 45.6802V49.7813H736.946V45.6802H724.313ZM749.232 45.6802V49.7813H762.667C762.667 47.8458 761.865 45.6802 761.865 45.6802H749.232ZM774.034 45.6802V49.7813H786.667V45.6802H774.034ZM791.83 45.6802L793.31 49.7813H804.942L806.434 45.6802H791.83ZM811.469 45.6802V49.7813H824.101V45.6802H811.469ZM682.858 53.6561V57.7627H712.027V53.6558H682.858V53.6561ZM715.931 53.6561V57.7627H760.834C761.779 56.8223 762.321 53.6558 762.321 53.6558H715.931V53.6561ZM765.88 53.6561V57.7627H786.667V53.6558H765.88V53.6561ZM794.704 53.6561L796.226 57.7627H802.144L803.572 53.6558H794.704V53.6561ZM811.469 53.6561V57.7627H832.483V53.6558H811.469V53.6561ZM682.858 61.6373V65.7383H712.027V61.6373H682.858ZM715.931 61.6373V65.7322H747.629C753.252 65.7322 757.498 61.637 757.498 61.637H715.931V61.6373ZM765.88 61.6373V65.7383H786.667V61.6373H765.88ZM797.59 61.6373L799.053 65.7263L799.305 65.7322L800.791 61.637H797.59V61.6373ZM811.469 61.6373V65.7383H832.483V61.6373H811.469Z" fill="#1F70C1"/>
</g>
</g>
<defs>
<linearGradient id="paint0_linear" x1="30.5168" y1="5.79688" x2="30.5168" y2="65.7969" gradientUnits="userSpaceOnUse">
<stop stop-color="#17C9FB"/>
<stop offset="1" stop-color="#1A74E8"/>
</linearGradient>
<linearGradient id="paint1_linear" x1="194.362" y1="18.404" x2="134.517" y2="18.404" gradientUnits="userSpaceOnUse">
<stop stop-color="#37BDA6"/>
<stop offset="1" stop-color="#8AD3B8"/>
</linearGradient>
<linearGradient id="paint2_linear" x1="194.362" y1="39.9982" x2="134.517" y2="39.9982" gradientUnits="userSpaceOnUse">
<stop offset="0.5" stop-color="#4BB6AD"/>
<stop offset="1" stop-color="#78BBC1"/>
</linearGradient>
<linearGradient id="paint3_linear" x1="164.439" y1="39.9982" x2="194.362" y2="39.9982" gradientUnits="userSpaceOnUse">
<stop stop-color="#4379A7"/>
<stop offset="1" stop-color="#7CC9B8"/>
</linearGradient>
<clipPath id="clip0">
<rect width="831.966" height="70.5469" fill="white" transform="translate(0.516846 0.523438)"/>
</clipPath>
<clipPath id="clip1">
<rect width="60" height="60" fill="white" transform="translate(0.516846 5.79688)"/>
</clipPath>
<clipPath id="clip2">
<rect width="60" height="60.7031" fill="white" transform="translate(134.517 5.44531)"/>
</clipPath>
<clipPath id="clip3">
<rect width="60" height="70.5469" fill="white" transform="translate(268.517 0.523438)"/>
</clipPath>
<clipPath id="clip4">
<rect width="72.1127" height="60" fill="white" transform="translate(402.517 5.79688)"/>
</clipPath>
<clipPath id="clip5">
<rect width="60" height="64.6875" fill="white" transform="translate(548.63 3.45312)"/>
</clipPath>
<clipPath id="clip6">
<rect width="149.854" height="60" fill="white" transform="translate(682.63 5.79688)"/>
</clipPath>
</defs>
</svg>
