<svg width="171" height="82" viewBox="0 0 171 82" fill="none" xmlns="http://www.w3.org/2000/svg">
<g clip-path="url(#clip0)">
<path d="M37.1449 30.249C35.9201 30.7774 34.5873 31.1576 33.2144 31.3057C34.6398 30.4589 35.7072 29.1211 36.2163 27.5433C34.8788 28.3389 33.4135 28.8969 31.8855 29.1923C31.2469 28.5096 30.4745 27.9657 29.6165 27.5945C28.7584 27.2234 27.8332 27.0329 26.8983 27.0349C23.1158 27.0349 20.0739 30.1009 20.0739 33.8634C20.0739 34.3917 20.1379 34.92 20.242 35.4284C14.5783 35.1322 9.52702 32.4264 6.16884 28.2837C5.55694 29.3289 5.23629 30.5189 5.24023 31.73C5.24023 34.0995 6.44502 36.1889 8.28221 37.4177C7.19952 37.375 6.14219 37.0774 5.19621 36.5491V36.6332C5.19621 39.9513 7.54173 42.7011 10.6678 43.3335C10.0808 43.486 9.47701 43.564 8.87059 43.5657C8.4263 43.5657 8.00603 43.5216 7.58175 43.4616C8.44631 46.1673 10.9639 48.1326 13.9619 48.1967C11.6164 50.0339 8.67846 51.1146 5.48839 51.1146C4.91602 51.1146 4.38768 51.0945 3.83932 51.0305C6.86529 52.9718 10.4556 54.0925 14.3221 54.0925C26.8743 54.0925 33.7427 43.6937 33.7427 34.6679C33.7427 34.3717 33.7427 34.0755 33.7227 33.7793C35.0516 32.8067 36.2163 31.6019 37.1449 30.249Z" fill="white"/>
<path d="M100.21 24.5532H70.7512C70.0427 24.5532 69.4703 25.1256 69.4703 25.8341V55.2932C69.4703 56.0016 70.0427 56.574 70.7512 56.574H100.21C100.919 56.574 101.491 56.0016 101.491 55.2932V25.8341C101.491 25.1256 100.919 24.5532 100.21 24.5532ZM96.5119 33.8993H93.9542C91.9489 33.8993 91.5607 34.8519 91.5607 36.2528V39.3388H96.3478L95.7234 44.17H91.5607V56.574H86.5694V44.174H82.3947V39.3388H86.5694V35.7765C86.5694 31.6418 89.0951 29.3884 92.7855 29.3884C94.5546 29.3884 96.0716 29.5204 96.5159 29.5805V33.8993H96.5119Z" fill="white"/>
<path d="M165.198 24.5532H135.739C135.031 24.5532 134.458 25.1256 134.458 25.8341V55.2932C134.458 56.0016 135.031 56.574 135.739 56.574H165.198C165.907 56.574 166.479 56.0016 166.479 55.2932V25.8341C166.479 25.1256 165.907 24.5532 165.198 24.5532ZM143.956 51.8389H139.205V36.557H143.956V51.8389ZM141.583 34.4677C141.038 34.4677 140.506 34.3061 140.053 34.0036C139.6 33.701 139.247 33.2709 139.039 32.7677C138.83 32.2645 138.776 31.7108 138.882 31.1766C138.988 30.6424 139.25 30.1518 139.636 29.7666C140.021 29.3815 140.511 29.1193 141.046 29.013C141.58 28.9067 142.133 28.9613 142.637 29.1697C143.14 29.3781 143.57 29.7311 143.873 30.1839C144.175 30.6368 144.337 31.1692 144.337 31.7139C144.333 33.2349 143.1 34.4677 141.583 34.4677ZM161.744 51.8389H156.997V44.4061C156.997 42.633 156.965 40.3555 154.527 40.3555C152.058 40.3555 151.677 42.2847 151.677 44.278V51.8389H146.934V36.557H151.489V38.6464H151.553C152.186 37.4456 153.735 36.1768 156.048 36.1768C160.859 36.1768 161.744 39.3428 161.744 43.4575V51.8389Z" fill="white"/>
</g>
<defs>
<clipPath id="clip0">
<rect width="170.96" height="80.9866" fill="white" transform="translate(0 0.0703125)"/>
</clipPath>
</defs>
</svg>
